<?xml version="1.0" encoding="utf-8"?>
<!-- Generator: Adobe Illustrator 23.0.2, SVG Export Plug-In . SVG Version: 6.00 Build 0)  -->
<svg version="1.1"
	 id="svg3626" xmlns:cc="http://creativecommons.org/ns#" xmlns:dc="http://purl.org/dc/elements/1.1/" xmlns:rdf="http://www.w3.org/1999/02/22-rdf-syntax-ns#" xmlns:svg="http://www.w3.org/2000/svg"
	 xmlns="http://www.w3.org/2000/svg" xmlns:xlink="http://www.w3.org/1999/xlink" x="0px" y="0px" viewBox="0 0 300 244.2"
	 style="enable-background:new 0 0 300 244.2;" xml:space="preserve">
<style type="text/css">
	.st0{fill:#888888;}
</style>
<path id="path3611" class="st0" d="M94.7,243.2c112.5,0,174-93.2,174-174c0-2.6-0.1-5.3-0.2-7.9c11.9-8.6,22.3-19.4,30.5-31.7
	c-11,4.9-22.7,8.1-35.1,9.6c12.6-7.6,22.3-19.5,26.9-33.8c-11.8,7-24.9,12.1-38.8,14.8C240.8,8.4,224.9,1,207.3,1
	c-33.8,0-61.1,27.4-61.1,61.1c0,4.8,0.5,9.5,1.6,13.9C97,73.4,51.9,49.1,21.8,12.1c-5.3,9-8.3,19.5-8.3,30.7
	c0,21.2,10.8,39.9,27.2,50.9c-10-0.3-19.5-3.1-27.7-7.6c0,0.3,0,0.5,0,0.8c0,29.6,21.1,54.3,49.1,59.9C57,148.2,51.6,149,46,149
	c-3.9,0-7.8-0.4-11.5-1.1c7.8,24.3,30.4,42,57.1,42.5c-20.9,16.4-47.3,26.2-75.9,26.2c-4.9,0-9.8-0.3-14.6-0.8
	C28.1,233.1,60.2,243.2,94.7,243.2"/>
</svg>
